<svg width="48" height="48" viewBox="0 0 48 48" fill="none" xmlns="http://www.w3.org/2000/svg">
<path d="M24.0003 0.666504C27.0945 0.666504 30.062 1.89567 32.2499 4.08359C34.4378 6.27152 35.667 9.23898 35.667 12.3332C35.667 15.4274 34.4378 18.3948 32.2499 20.5828C30.062 22.7707 27.0945 23.9998 24.0003 23.9998C20.9061 23.9998 17.9387 22.7707 15.7507 20.5828C13.5628 18.3948 12.3337 15.4274 12.3337 12.3332C12.3337 9.23898 13.5628 6.27152 15.7507 4.08359C17.9387 1.89567 20.9061 0.666504 24.0003 0.666504ZM24.0003 6.49984C22.4532 6.49984 20.9695 7.11442 19.8755 8.20838C18.7816 9.30234 18.167 10.7861 18.167 12.3332C18.167 13.8803 18.7816 15.364 19.8755 16.458C20.9695 17.5519 22.4532 18.1665 24.0003 18.1665C25.5474 18.1665 27.0312 17.5519 28.1251 16.458C29.2191 15.364 29.8337 13.8803 29.8337 12.3332C29.8337 10.7861 29.2191 9.30234 28.1251 8.20838C27.0312 7.11442 25.5474 6.49984 24.0003 6.49984ZM24.0003 26.9165C31.7878 26.9165 47.3337 30.7957 47.3337 38.5832V47.3332H0.666992V38.5832C0.666992 30.7957 16.2128 26.9165 24.0003 26.9165ZM24.0003 32.4582C15.3378 32.4582 6.20866 36.7165 6.20866 38.5832V41.7915H41.792V38.5832C41.792 36.7165 32.6628 32.4582 24.0003 32.4582Z" fill="black"/>
</svg>
