<svg width="54" height="48" viewBox="0 0 54 48" fill="none" xmlns="http://www.w3.org/2000/svg">
<path d="M47.125 3.50016C46.5417 1.75016 44.7917 0.583496 43.0417 0.583496H10.9583C8.91667 0.583496 7.45833 1.75016 6.875 3.50016L0.75 21.0002V44.3335C0.75 45.7918 2.20833 47.2502 3.66667 47.2502H6.58333C8.33333 47.2502 9.5 45.7918 9.5 44.3335V41.4168H44.5V44.3335C44.5 45.7918 45.9583 47.2502 47.4167 47.2502H50.3333C51.7917 47.2502 53.25 45.7918 53.25 44.3335V21.0002L47.125 3.50016ZM11.8333 6.41683H41.875L45.0833 15.1668H8.91667L11.8333 6.41683ZM47.4167 35.5835H6.58333V21.0002H47.4167V35.5835ZM13.875 23.9168C16.2083 23.9168 18.25 25.9585 18.25 28.2918C18.25 30.6252 16.2083 32.6668 13.875 32.6668C11.5417 32.6668 9.5 30.6252 9.5 28.2918C9.5 25.9585 11.5417 23.9168 13.875 23.9168ZM40.125 23.9168C42.4583 23.9168 44.5 25.9585 44.5 28.2918C44.5 30.6252 42.4583 32.6668 40.125 32.6668C37.7917 32.6668 35.75 30.6252 35.75 28.2918C35.75 25.9585 37.7917 23.9168 40.125 23.9168Z" fill="black"/>
</svg>
