<?xml version="1.0" standalone="no"?>
<!DOCTYPE svg PUBLIC "-//W3C//DTD SVG 20010904//EN"
 "http://www.w3.org/TR/2001/REC-SVG-20010904/DTD/svg10.dtd">
<svg version="1.0" xmlns="http://www.w3.org/2000/svg"
 width="920.000000pt" height="420.000000pt" viewBox="0 0 920.000000 420.000000"
 preserveAspectRatio="xMidYMid meet">

<g transform="translate(0.000000,420.000000) scale(0.100000,-0.100000)"
fill="#000000" stroke="none">
<path d="M4000 3559 c-1016 -62 -1871 -285 -2375 -619 -127 -84 -301 -252
-353 -341 -71 -121 -98 -268 -72 -388 104 -481 936 -903 2109 -1071 442 -63
814 -85 1306 -77 332 6 463 13 705 37 1003 103 1831 387 2210 759 136 134 198
244 222 395 21 137 -28 287 -140 427 -182 229 -517 425 -997 584 -483 160
-1024 254 -1695 295 -191 11 -722 11 -920 -1z m830 -89 c1191 -53 2176 -331
2598 -734 148 -142 216 -273 214 -415 -3 -152 -59 -269 -196 -407 -568 -569
-2204 -877 -3816 -718 -981 96 -1785 367 -2135 719 -135 136 -189 252 -190
405 0 148 53 259 190 395 505 505 1890 819 3335 755z"/>
<path d="M4040 3383 c-25 -1 -117 -7 -205 -13 -712 -47 -1442 -214 -1880 -432
-280 -139 -462 -296 -536 -462 -132 -300 117 -613 676 -849 1052 -444 2896
-521 4225 -176 634 164 1060 408 1198 688 35 72 37 80 37 176 0 97 -1 104 -39
181 -50 101 -179 234 -316 324 -453 298 -1265 501 -2230 560 -147 9 -815 11
-930 3z m-170 -264 c52 -5 185 -25 295 -44 110 -18 245 -38 300 -44 417 -44
554 -43 803 5 45 9 93 13 107 10 27 -7 41 -41 31 -79 -8 -32 -78 -99 -135
-130 -199 -109 -501 -96 -976 43 -38 11 -81 20 -94 20 -27 0 -137 -85 -218
-167 -55 -57 -173 -198 -173 -207 0 -10 136 -7 189 5 l49 10 0 49 c1 89 54
150 131 150 32 0 48 -6 68 -26 23 -23 25 -32 21 -83 -5 -64 -26 -101 -75 -128
-36 -19 -41 -34 -18 -53 20 -17 19 -59 -2 -67 -12 -5 -28 6 -53 35 -34 38 -40
41 -67 33 -17 -5 -89 -14 -159 -21 -95 -9 -134 -16 -146 -28 -9 -10 -58 -82
-108 -162 -195 -309 -318 -463 -438 -544 -169 -115 -372 -127 -519 -31 -51 34
-103 97 -124 152 -33 85 -28 222 11 310 28 63 113 148 183 183 100 50 180 36
157 -27 -5 -11 -21 -29 -36 -40 -65 -44 -124 -107 -140 -149 -47 -124 44 -244
188 -244 108 0 232 71 373 214 84 85 255 299 255 320 0 15 -83 -4 -151 -35
-55 -26 -70 -29 -88 -20 -26 15 -26 22 0 55 32 41 128 84 225 101 48 8 90 15
93 15 4 0 24 24 46 53 89 120 195 234 285 304 52 42 96 79 98 83 4 10 -151 47
-251 60 -111 14 -300 12 -378 -4 -124 -27 -241 -102 -278 -179 -42 -86 -18
-168 53 -181 71 -13 184 47 247 130 26 35 39 44 59 42 38 -5 39 -54 1 -134
-56 -119 -174 -209 -307 -233 -105 -19 -202 26 -245 117 -30 61 -30 164 0 242
63 166 275 303 509 329 82 9 273 4 402 -10z m2478 -460 c12 -5 22 -17 22 -28
0 -11 -95 -163 -211 -338 -241 -364 -319 -490 -319 -519 0 -12 9 -29 19 -38
43 -39 155 25 272 153 40 45 81 83 90 86 25 8 59 -12 59 -34 0 -29 -81 -130
-171 -215 -155 -146 -307 -186 -391 -103 -18 18 -38 41 -44 51 -10 19 -12 19
-45 -6 -75 -56 -120 -73 -200 -73 -66 0 -81 3 -117 28 -56 36 -82 91 -89 183
-3 41 -7 74 -8 74 -2 0 -29 -12 -61 -27 -116 -53 -217 -25 -268 74 l-23 47
-119 -179 -119 -180 -88 -3 c-70 -2 -88 0 -93 12 -4 9 49 101 133 233 77 120
144 231 151 246 18 42 15 75 -8 87 -49 26 -133 -51 -315 -290 -124 -163 -194
-231 -279 -271 -153 -71 -284 -36 -362 97 -14 24 -31 44 -36 44 -6 0 -33 -20
-59 -45 -26 -25 -55 -45 -63 -45 -17 0 -56 46 -56 66 0 7 21 35 46 61 79 83
110 125 158 218 79 149 142 218 256 275 60 30 160 39 183 15 12 -11 15 -25 11
-43 -10 -39 -20 -49 -80 -76 -199 -91 -293 -348 -154 -419 89 -46 211 29 282
172 27 53 33 78 36 151 3 65 0 94 -11 116 -13 25 -13 32 -1 56 19 37 68 62 93
49 20 -11 46 -67 56 -124 4 -21 11 -40 17 -43 5 -3 49 32 97 79 95 91 122 110
194 127 86 22 157 -24 157 -101 0 -22 4 -39 8 -39 5 0 29 19 53 41 58 54 112
79 176 79 64 0 107 -32 123 -92 15 -52 5 -92 -32 -133 -55 -63 -138 -53 -176
21 l-19 36 -22 -27 c-27 -36 -35 -66 -27 -110 9 -44 39 -65 94 -65 78 0 134
35 322 204 105 95 173 133 264 148 99 16 165 -12 218 -92 8 -14 18 -23 21 -20
3 3 70 105 150 226 80 122 151 224 159 227 19 8 120 5 146 -4z"/>
<path d="M3578 3033 c12 -2 30 -2 40 0 9 3 -1 5 -23 4 -22 0 -30 -2 -17 -4z"/>
<path d="M4435 2869 c188 -51 457 -90 470 -69 3 4 -3 7 -12 5 -10 -1 -22 1
-28 5 -5 4 -44 11 -85 14 -41 4 -148 21 -237 37 -89 16 -166 29 -170 28 -5 0
24 -9 62 -20z"/>
<path d="M4146 2645 c-16 -16 -33 -82 -23 -91 9 -9 44 18 62 48 27 47 -2 80
-39 43z"/>
<path d="M4204 2538 l-19 -23 23 19 c12 11 22 21 22 23 0 8 -8 2 -26 -19z"/>
<path d="M3420 2385 c-14 -8 -20 -14 -15 -14 6 0 21 6 35 14 14 8 21 14 15 14
-5 0 -21 -6 -35 -14z"/>
<path d="M3482 2057 c-150 -213 -214 -277 -354 -353 -56 -30 -59 -34 -28 -29
92 15 229 140 361 330 93 134 113 165 106 165 -3 0 -41 -51 -85 -113z"/>
<path d="M6112 2278 c-74 -110 -122 -188 -117 -188 5 0 75 104 138 203 52 82
37 71 -21 -15z"/>
<path d="M5635 2161 c-68 -39 -172 -152 -201 -218 -32 -72 -32 -136 1 -168 30
-31 56 -31 120 -1 98 46 199 169 202 245 1 25 5 65 9 89 12 82 -42 104 -131
53z"/>
<path d="M5515 2098 l-40 -43 43 40 c23 21 42 40 42 42 0 8 -9 0 -45 -39z"/>
<path d="M5087 2109 c14 -14 70 -16 83 -3 5 5 -11 10 -43 12 -40 2 -49 0 -40
-9z"/>
<path d="M4332 1862 c-33 -42 -78 -94 -102 -116 -56 -50 -155 -96 -224 -103
-41 -4 -56 -10 -56 -21 0 -12 10 -14 57 -9 77 8 167 55 229 119 50 51 170 208
160 208 -3 0 -32 -35 -64 -78z"/>
<path d="M5160 1894 c-32 -13 -75 -24 -103 -24 -33 0 -46 -4 -41 -11 10 -17
93 -4 148 21 25 12 52 20 60 17 9 -4 15 -30 18 -80 8 -131 66 -197 174 -197
57 0 139 22 169 45 18 13 14 13 -25 -1 -25 -8 -76 -16 -115 -17 -122 -3 -176
51 -192 193 -9 87 -13 89 -93 54z"/>
<path d="M4665 1729 c-31 -45 -54 -84 -51 -86 2 -3 26 28 53 69 60 89 66 98
59 98 -2 0 -30 -37 -61 -81z"/>
<path d="M5686 1688 c10 -14 21 -24 23 -22 3 3 -6 15 -18 27 l-24 22 19 -27z"/>
<path d="M3926 1637 c3 -10 9 -15 12 -12 3 3 0 11 -7 18 -10 9 -11 8 -5 -6z"/>
<path d="M7755 2860 c72 -78 96 -113 151 -219 44 -86 118 -180 131 -168 8 9
-42 121 -82 181 -47 72 -128 161 -198 218 l-52 42 50 -54z"/>
<path d="M886 2267 c-23 -23 -26 -34 -26 -99 0 -67 4 -80 45 -157 59 -110 129
-196 229 -283 792 -687 2740 -1004 4561 -742 791 113 1468 333 1895 615 143
94 322 265 379 361 45 78 80 168 94 240 10 55 9 62 -9 75 -27 20 -81 10 -164
-32 -69 -35 -140 -89 -140 -106 0 -6 9 -5 21 1 33 18 61 21 78 7 10 -8 13 -8
8 0 -9 14 19 11 33 -3 14 -14 31 -76 19 -69 -5 4 -9 14 -9 24 0 18 -29 63 -30
46 0 -6 5 -16 10 -21 6 -6 12 -24 13 -41 1 -17 6 -29 12 -25 6 3 1 -5 -10 -18
-12 -14 -14 -20 -5 -15 9 5 8 0 -4 -13 -11 -12 -16 -22 -12 -22 4 0 2 -6 -4
-12 -6 -7 -27 -35 -48 -63 -20 -27 -54 -66 -74 -86 -20 -20 -34 -39 -31 -43 4
-3 1 -6 -5 -6 -10 0 -46 -29 -103 -82 -11 -10 -23 -18 -29 -18 -5 0 -10 -3
-10 -8 0 -4 -18 -18 -40 -32 -22 -14 -40 -28 -40 -33 0 -4 -4 -6 -9 -3 -5 4
-11 2 -13 -2 -1 -5 -32 -26 -68 -48 -36 -21 -68 -43 -72 -49 -4 -5 -8 -6 -8
-1 0 5 -6 4 -12 -2 -24 -19 -278 -142 -293 -142 -3 0 -24 -9 -48 -19 -79 -36
-304 -115 -353 -125 -10 -2 -39 -11 -64 -19 -37 -13 -98 -28 -120 -32 -3 0
-11 -4 -17 -8 -7 -5 -13 -6 -13 -3 0 3 -10 2 -23 -3 -13 -5 -40 -12 -59 -15
-19 -3 -48 -10 -64 -16 -16 -6 -31 -11 -34 -10 -4 0 -87 -12 -100 -15 -41 -11
-60 -15 -85 -19 -36 -6 -142 -24 -170 -30 -11 -2 -42 -7 -70 -10 -27 -4 -57
-9 -65 -11 -8 -2 -40 -6 -70 -10 -30 -3 -66 -7 -80 -9 -14 -3 -56 -7 -95 -11
-38 -3 -83 -8 -100 -10 -46 -6 -167 -16 -365 -29 -371 -25 -885 -21 -1240 9
-25 2 -79 7 -120 10 -91 8 -142 13 -195 19 -22 3 -67 8 -100 11 -33 3 -71 8
-85 10 -66 12 -142 23 -195 30 -35 4 -178 31 -215 39 -14 4 -41 9 -60 12 -31
5 -207 44 -270 61 -14 3 -29 7 -35 8 -116 28 -319 93 -491 159 -149 57 -453
207 -490 241 -6 6 -27 19 -47 30 -20 11 -37 23 -37 27 0 5 -4 8 -10 8 -9 0
-42 25 -76 58 -8 7 -14 11 -14 8 0 -8 -53 39 -132 119 -68 69 -166 202 -160
219 1 4 -1 13 -7 20 -5 6 -9 24 -9 40 0 21 3 25 10 15 7 -10 8 -8 5 8 -3 13 2
28 11 35 12 10 14 10 8 1 -4 -7 -2 -13 3 -13 6 0 11 4 11 9 0 12 79 4 96 -10
8 -6 17 -9 21 -6 12 13 -68 77 -140 112 -101 50 -138 54 -171 22z"/>
<path d="M1041 2074 c0 -11 3 -14 6 -6 3 7 2 16 -1 19 -3 4 -6 -2 -5 -13z"/>
</g>
</svg>
